<svg id="visual" viewBox="0 0 1024 150" width="1024" height="150" xmlns="http://www.w3.org/2000/svg" xmlns:xlink="http://www.w3.org/1999/xlink" version="1.1"><path d="M0 31L68 31L68 28L137 28L137 15L205 15L205 18L273 18L273 18L341 18L341 39L410 39L410 13L478 13L478 36L546 36L546 39L614 39L614 39L683 39L683 37L751 37L751 13L819 13L819 36L887 36L887 28L956 28L956 18L1024 18L1024 28L1024 0L1024 0L956 0L956 0L887 0L887 0L819 0L819 0L751 0L751 0L683 0L683 0L614 0L614 0L546 0L546 0L478 0L478 0L410 0L410 0L341 0L341 0L273 0L273 0L205 0L205 0L137 0L137 0L68 0L68 0L0 0Z" fill="#ffffff"></path><path d="M0 86L68 86L68 91L137 91L137 85L205 85L205 69L273 69L273 52L341 52L341 75L410 75L410 64L478 64L478 93L546 93L546 78L614 78L614 104L683 104L683 93L751 93L751 58L819 58L819 55L887 55L887 88L956 88L956 51L1024 51L1024 72L1024 26L1024 16L956 16L956 26L887 26L887 34L819 34L819 11L751 11L751 35L683 35L683 37L614 37L614 37L546 37L546 34L478 34L478 11L410 11L410 37L341 37L341 16L273 16L273 16L205 16L205 13L137 13L137 26L68 26L68 29L0 29Z" fill="#d7c7f9"></path><path d="M0 100L68 100L68 126L137 126L137 99L205 99L205 109L273 109L273 79L341 79L341 96L410 96L410 103L478 103L478 115L546 115L546 115L614 115L614 129L683 129L683 132L751 132L751 109L819 109L819 82L887 82L887 133L956 133L956 78L1024 78L1024 99L1024 70L1024 49L956 49L956 86L887 86L887 53L819 53L819 56L751 56L751 91L683 91L683 102L614 102L614 76L546 76L546 91L478 91L478 62L410 62L410 73L341 73L341 50L273 50L273 67L205 67L205 83L137 83L137 89L68 89L68 84L0 84Z" fill="#aa90f2"></path><path d="M0 151L68 151L68 151L137 151L137 151L205 151L205 151L273 151L273 151L341 151L341 151L410 151L410 151L478 151L478 151L546 151L546 151L614 151L614 151L683 151L683 151L751 151L751 151L819 151L819 151L887 151L887 151L956 151L956 151L1024 151L1024 151L1024 97L1024 76L956 76L956 131L887 131L887 80L819 80L819 107L751 107L751 130L683 130L683 127L614 127L614 113L546 113L546 113L478 113L478 101L410 101L410 94L341 94L341 77L273 77L273 107L205 107L205 97L137 97L137 124L68 124L68 98L0 98Z" fill="#755be9"></path></svg>