<svg id="visual" viewBox="0 0 1024 150" width="1024" height="150" xmlns="http://www.w3.org/2000/svg" xmlns:xlink="http://www.w3.org/1999/xlink" version="1.1"><path d="M0 28L68 28L68 49L137 49L137 28L205 28L205 12L273 12L273 24L341 24L341 27L410 27L410 51L478 51L478 30L546 30L546 15L614 15L614 27L683 27L683 33L751 33L751 15L819 15L819 25L887 25L887 36L956 36L956 33L1024 33L1024 43L1024 0L1024 0L956 0L956 0L887 0L887 0L819 0L819 0L751 0L751 0L683 0L683 0L614 0L614 0L546 0L546 0L478 0L478 0L410 0L410 0L341 0L341 0L273 0L273 0L205 0L205 0L137 0L137 0L68 0L68 0L0 0Z" fill="#755be9"></path><path d="M0 62L68 62L68 112L137 112L137 67L205 67L205 69L273 69L273 88L341 88L341 61L410 61L410 91L478 91L478 102L546 102L546 70L614 70L614 86L683 86L683 52L751 52L751 51L819 51L819 75L887 75L887 64L956 64L956 64L1024 64L1024 104L1024 41L1024 31L956 31L956 34L887 34L887 23L819 23L819 13L751 13L751 31L683 31L683 25L614 25L614 13L546 13L546 28L478 28L478 49L410 49L410 25L341 25L341 22L273 22L273 10L205 10L205 26L137 26L137 47L68 47L68 26L0 26Z" fill="#4b41a1"></path><path d="M0 117L68 117L68 136L137 136L137 121L205 121L205 120L273 120L273 120L341 120L341 138L410 138L410 135L478 135L478 121L546 121L546 139L614 139L614 115L683 115L683 114L751 114L751 129L819 129L819 142L887 142L887 117L956 117L956 127L1024 127L1024 132L1024 102L1024 62L956 62L956 62L887 62L887 73L819 73L819 49L751 49L751 50L683 50L683 84L614 84L614 68L546 68L546 100L478 100L478 89L410 89L410 59L341 59L341 86L273 86L273 67L205 67L205 65L137 65L137 110L68 110L68 60L0 60Z" fill="#29275c"></path><path d="M0 151L68 151L68 151L137 151L137 151L205 151L205 151L273 151L273 151L341 151L341 151L410 151L410 151L478 151L478 151L546 151L546 151L614 151L614 151L683 151L683 151L751 151L751 151L819 151L819 151L887 151L887 151L956 151L956 151L1024 151L1024 151L1024 130L1024 125L956 125L956 115L887 115L887 140L819 140L819 127L751 127L751 112L683 112L683 113L614 113L614 137L546 137L546 119L478 119L478 133L410 133L410 136L341 136L341 118L273 118L273 118L205 118L205 119L137 119L137 134L68 134L68 115L0 115Z" fill="#0f0b1f"></path></svg>