<?xml version="1.0" encoding="utf-8"?>
<!-- Generator: Adobe Illustrator 16.0.0, SVG Export Plug-In . SVG Version: 6.00 Build 0)  -->
<!DOCTYPE svg PUBLIC "-//W3C//DTD SVG 1.1//EN" "http://www.w3.org/Graphics/SVG/1.1/DTD/svg11.dtd">
<svg version="1.1" id="Layer_1" xmlns="http://www.w3.org/2000/svg" xmlns:xlink="http://www.w3.org/1999/xlink" x="0px" y="0px"
	 width="128px" height="128px" viewBox="0 0 128 128" enable-background="new 0 0 128 128" xml:space="preserve">
<path fill="#2B87D1" d="M114,58h-9.486c-0.951-6.479-3.424-12.458-7.036-17.579l7.034-7.034c1.563-1.562,1.563-4.095,0-5.657
	l-4.242-4.243c-1.562-1.562-4.095-1.562-5.657,0l-7.034,7.034c-5.12-3.612-11.1-6.084-17.578-7.036V14c0-2.209-1.791-4-4-4h-6
	c-2.209,0-4,1.791-4,4v9.831c-5.954,1.179-11.441,3.65-16.163,7.107l-7.45-7.45c-1.562-1.562-4.095-1.562-5.657,0l-4.243,4.243
	c-1.562,1.562-1.562,4.095,0,5.657l7.619,7.619c-3.39,4.988-5.705,10.763-6.62,16.994H12c-2.209,0-4,1.791-4,4v6
	c0,2.209,1.791,4,4,4h11.831c1.131,5.711,3.454,10.989,6.691,15.578l-8.035,8.034c-1.562,1.563-1.562,4.096,0,5.657l4.243,4.242
	c1.562,1.563,4.095,1.563,5.657,0l8.035-8.034c4.588,3.237,9.867,5.56,15.578,6.69V116c0,2.209,1.791,4,4,4h6c2.209,0,4-1.791,4-4
	v-11.486c6.231-0.915,12.006-3.23,16.993-6.621l7.619,7.619c1.563,1.563,4.096,1.563,5.657,0l4.242-4.242
	c1.563-1.562,1.563-4.095,0-5.657l-7.45-7.45c3.457-4.722,5.928-10.208,7.106-16.162H114c2.209,0,4-1.791,4-4v-6
	C118,59.791,116.209,58,114,58z M64,72.5c-4.694,0-8.5-3.806-8.5-8.5s3.806-8.5,8.5-8.5s8.5,3.806,8.5,8.5S68.694,72.5,64,72.5z"/>
</svg>
