<?xml version="1.0" encoding="utf-8"?>
<!-- Generator: Adobe Illustrator 16.0.0, SVG Export Plug-In . SVG Version: 6.00 Build 0)  -->
<!DOCTYPE svg PUBLIC "-//W3C//DTD SVG 1.1//EN" "http://www.w3.org/Graphics/SVG/1.1/DTD/svg11.dtd">
<svg version="1.1" id="Layer_1" xmlns="http://www.w3.org/2000/svg" xmlns:xlink="http://www.w3.org/1999/xlink" x="0px" y="0px"
	 width="1024px" height="256px" viewBox="0 0 1024 256" enable-background="new 0 0 1024 256" xml:space="preserve">
<polygon fill="#6b13bd" points="972,64 972,19 919,19 919,37 864,37 864,109 811,109 811,64 756,64 756,91 703,91 703,37 648,37 
	648,55 594,55 594,82 540,82 540,28 486,28 486,55 432,55 432,10 378,10 378,28 323,28 323,100 270,100 270,55 215,55 215,82 
	162,82 162,28 107,28 107,46 54,46 54,73 -1,73 -1,181 54,181 54,235 107,235 107,208 162,208 162,226 215,226 215,190 270,190 
	270,217 323,217 323,199 378,199 378,244 432,244 432,208 486,208 486,172 540,172 540,190 594,190 594,244 648,244 648,217 
	703,217 703,235 756,235 756,199 811,199 811,226 864,226 864,208 919,208 919,253 972,253 972,217 1025,217 1025,64 "/>
</svg>
