<?xml version="1.0" encoding="utf-8"?>
<!-- Generator: Adobe Illustrator 16.0.0, SVG Export Plug-In . SVG Version: 6.00 Build 0)  -->
<!DOCTYPE svg PUBLIC "-//W3C//DTD SVG 1.1//EN" "http://www.w3.org/Graphics/SVG/1.1/DTD/svg11.dtd">
<svg version="1.1" id="visual" xmlns="http://www.w3.org/2000/svg" xmlns:xlink="http://www.w3.org/1999/xlink" x="0px" y="0px"
	 width="512px" height="512px" viewBox="0 0 512 512" enable-background="new 0 0 512 512" xml:space="preserve">
<g transform="translate(319.46833069517464 236.46669614916254)">
	<linearGradient id="SVGID_1_" gradientUnits="userSpaceOnUse" x1="-209.2891" y1="185.0021" x2="136.3085" y2="-160.5955">
		<stop  offset="0" style="stop-color:#93E7EF"/>
		<stop  offset="1" style="stop-color:#A9D0FF"/>
	</linearGradient>
	<path fill="url(#SVGID_1_)" d="M122.6-174.2c28.5,26.2,38.5,72.4,40.4,113c1.899,40.6-4.5,75.6-9.801,116.8
		c-5.3,41.3-9.6,88.7-35,121.601C92.9,210.2,46.4,228.6-6,236.8c-52.4,8.2-110.8,6.3-159-19.3C-213.1,192-251.1,143-272.7,86.3
		c-21.5-56.601-26.6-120.9,3.7-161.2c30.3-40.4,95.8-56.8,146.6-75.8c50.7-19,86.5-40.7,128-48.3C47-206.7,94-200.4,122.6-174.2"/>
</g>
</svg>
