<svg id="visual" viewBox="0 0 1024 128" width="1024" height="128" xmlns="http://www.w3.org/2000/svg" xmlns:xlink="http://www.w3.org/1999/xlink" version="1.1"><path d="M0 53L64 53L64 86L128 86L128 23L192 23L192 32L256 32L256 67L320 67L320 79L384 79L384 55L448 55L448 101L512 101L512 69L576 69L576 67L640 67L640 41L704 41L704 56L768 56L768 76L832 76L832 103L896 103L896 31L960 31L960 62L1024 62L1024 99L1024 129L1024 129L960 129L960 129L896 129L896 129L832 129L832 129L768 129L768 129L704 129L704 129L640 129L640 129L576 129L576 129L512 129L512 129L448 129L448 129L384 129L384 129L320 129L320 129L256 129L256 129L192 129L192 129L128 129L128 129L64 129L64 129L0 129Z" fill="#ffffff" stroke-linecap="square" stroke-linejoin="miter"></path></svg>